<svg xmlns="http://www.w3.org/2000/svg" version="1.1" xmlns:xlink="http://www.w3.org/1999/xlink" width="1000" height="1000"><g clip-path="url(#SvgjsClipPath1228)"><rect width="1000" height="1000" fill="#ffffff"></rect><g transform="matrix(6.510416666666667,0,0,6.510416666666667,124.54427083333331,100)"><svg xmlns="http://www.w3.org/2000/svg" version="1.1" xmlns:xlink="http://www.w3.org/1999/xlink" width="115.34" height="122.88"><svg id="Layer_1" data-name="Layer 1" xmlns="http://www.w3.org/2000/svg" viewBox="0 0 115.34 122.88"><title>headphones</title><path d="M97.74,119.52a2,2,0,0,1-.68-.12V65.93a2,2,0,0,1,.68-.12c3.34,0,6.43,5,8.48,7l-.46-12.12c0-12.8-3.72-23.11-9.68-30.93a7.37,7.37,0,0,1-5.86-2.23l-.68-.7C80.91,18.29,69,14.44,57.24,14.66S33.76,19.19,25.69,26.91l-.66.64a7.3,7.3,0,0,1-6.49,2.05c-6,7.84-9.75,18.21-9.75,31.14L8.33,74.63c2.25-2.71,6.34-8.66,10-8.82v53.71C10.52,119.36,4.91,107.05,3,101H0V60.74A57.33,57.33,0,0,1,12.83,24.57a7.35,7.35,0,0,1,1.8-7.36l1-.95C26.36,6,41.62.3,57,0s31.25,4.9,42.87,16.46l.91.93a7.33,7.33,0,0,1,1.74,7.2,57.34,57.34,0,0,1,12.81,36.13V101h-2.21c-1.89,6.14-7.54,18.57-15.39,18.57Zm-5.55,3.36h-9a3.48,3.48,0,0,1-3.48-3.47V65.65a3.49,3.49,0,0,1,3.48-3.48h9v60.71Zm-69-60.71H33a3.5,3.5,0,0,1,3.48,3.48v53.76A3.49,3.49,0,0,1,33,122.88H23.14V62.17Z"></path></svg></svg></g></g><defs><clipPath id="SvgjsClipPath1228"><rect width="1000" height="1000" x="0" y="0" rx="500" ry="500"></rect></clipPath></defs></svg>